<svg width="35" height="35" viewBox="0 0 35 35" fill="none" xmlns="http://www.w3.org/2000/svg">
<path d="M29.1667 2.91667H27.7083V1.45833C27.7083 1.07156 27.5547 0.700627 27.2812 0.427136C27.0077 0.153645 26.6368 0 26.25 0C25.8632 0 25.4923 0.153645 25.2188 0.427136C24.9453 0.700627 24.7917 1.07156 24.7917 1.45833V2.91667H10.2083V1.45833C10.2083 1.07156 10.0547 0.700627 9.7812 0.427136C9.50771 0.153645 9.13677 0 8.75 0C8.36323 0 7.99229 0.153645 7.7188 0.427136C7.44531 0.700627 7.29167 1.07156 7.29167 1.45833V2.91667H5.83333C4.28624 2.91667 2.80251 3.53125 1.70854 4.62521C0.614582 5.71917 0 7.2029 0 8.75V29.1667C0 30.7138 0.614582 32.1975 1.70854 33.2915C2.80251 34.3854 4.28624 35 5.83333 35H29.1667C30.7138 35 32.1975 34.3854 33.2915 33.2915C34.3854 32.1975 35 30.7138 35 29.1667V8.75C35 7.2029 34.3854 5.71917 33.2915 4.62521C32.1975 3.53125 30.7138 2.91667 29.1667 2.91667ZM32.0833 29.1667C32.0833 29.9402 31.776 30.6821 31.2291 31.2291C30.6821 31.776 29.9402 32.0833 29.1667 32.0833H5.83333C5.05979 32.0833 4.31792 31.776 3.77094 31.2291C3.22396 30.6821 2.91667 29.9402 2.91667 29.1667V8.75C2.91667 7.97645 3.22396 7.23459 3.77094 6.68761C4.31792 6.14062 5.05979 5.83333 5.83333 5.83333H7.29167V7.29167C7.29167 7.67844 7.44531 8.04937 7.7188 8.32286C7.99229 8.59635 8.36323 8.75 8.75 8.75C9.13677 8.75 9.50771 8.59635 9.7812 8.32286C10.0547 8.04937 10.2083 7.67844 10.2083 7.29167V5.83333H24.7917V7.29167C24.7917 7.67844 24.9453 8.04937 25.2188 8.32286C25.4923 8.59635 25.8632 8.75 26.25 8.75C26.6368 8.75 27.0077 8.59635 27.2812 8.32286C27.5547 8.04937 27.7083 7.67844 27.7083 7.29167V5.83333H29.1667C29.9402 5.83333 30.6821 6.14062 31.2291 6.68761C31.776 7.23459 32.0833 7.97645 32.0833 8.75V29.1667Z" fill="#171717"/>
<path d="M27.7083 10.2083H7.29167C6.90489 10.2083 6.53396 10.362 6.26047 10.6355C5.98698 10.909 5.83333 11.2799 5.83333 11.6667C5.83333 12.0534 5.98698 12.4244 6.26047 12.6979C6.53396 12.9714 6.90489 13.125 7.29167 13.125H27.7083C28.0951 13.125 28.466 12.9714 28.7395 12.6979C29.013 12.4244 29.1667 12.0534 29.1667 11.6667C29.1667 11.2799 29.013 10.909 28.7395 10.6355C28.466 10.362 28.0951 10.2083 27.7083 10.2083ZM10.2083 17.5H7.29167C6.90489 17.5 6.53396 17.6536 6.26047 17.9271C5.98698 18.2006 5.83333 18.5716 5.83333 18.9583C5.83333 19.3451 5.98698 19.716 6.26047 19.9895C6.53396 20.263 6.90489 20.4167 7.29167 20.4167H10.2083C10.5951 20.4167 10.966 20.263 11.2395 19.9895C11.513 19.716 11.6667 19.3451 11.6667 18.9583C11.6667 18.5716 11.513 18.2006 11.2395 17.9271C10.966 17.6536 10.5951 17.5 10.2083 17.5ZM10.2083 24.7917H7.29167C6.90489 24.7917 6.53396 24.9453 6.26047 25.2188C5.98698 25.4923 5.83333 25.8632 5.83333 26.25C5.83333 26.6368 5.98698 27.0077 6.26047 27.2812C6.53396 27.5547 6.90489 27.7083 7.29167 27.7083H10.2083C10.5951 27.7083 10.966 27.5547 11.2395 27.2812C11.513 27.0077 11.6667 26.6368 11.6667 26.25C11.6667 25.8632 11.513 25.4923 11.2395 25.2188C10.966 24.9453 10.5951 24.7917 10.2083 24.7917ZM18.9583 17.5H16.0417C15.6549 17.5 15.284 17.6536 15.0105 17.9271C14.737 18.2006 14.5833 18.5716 14.5833 18.9583C14.5833 19.3451 14.737 19.716 15.0105 19.9895C15.284 20.263 15.6549 20.4167 16.0417 20.4167H18.9583C19.3451 20.4167 19.716 20.263 19.9895 19.9895C20.263 19.716 20.4167 19.3451 20.4167 18.9583C20.4167 18.5716 20.263 18.2006 19.9895 17.9271C19.716 17.6536 19.3451 17.5 18.9583 17.5ZM18.9583 24.7917H16.0417C15.6549 24.7917 15.284 24.9453 15.0105 25.2188C14.737 25.4923 14.5833 25.8632 14.5833 26.25C14.5833 26.6368 14.737 27.0077 15.0105 27.2812C15.284 27.5547 15.6549 27.7083 16.0417 27.7083H18.9583C19.3451 27.7083 19.716 27.5547 19.9895 27.2812C20.263 27.0077 20.4167 26.6368 20.4167 26.25C20.4167 25.8632 20.263 25.4923 19.9895 25.2188C19.716 24.9453 19.3451 24.7917 18.9583 24.7917ZM27.7083 17.5H24.7917C24.4049 17.5 24.034 17.6536 23.7605 17.9271C23.487 18.2006 23.3333 18.5716 23.3333 18.9583C23.3333 19.3451 23.487 19.716 23.7605 19.9895C24.034 20.263 24.4049 20.4167 24.7917 20.4167H27.7083C28.0951 20.4167 28.466 20.263 28.7395 19.9895C29.013 19.716 29.1667 19.3451 29.1667 18.9583C29.1667 18.5716 29.013 18.2006 28.7395 17.9271C28.466 17.6536 28.0951 17.5 27.7083 17.5ZM27.7083 24.7917H24.7917C24.4049 24.7917 24.034 24.9453 23.7605 25.2188C23.487 25.4923 23.3333 25.8632 23.3333 26.25C23.3333 26.6368 23.487 27.0077 23.7605 27.2812C24.034 27.5547 24.4049 27.7083 24.7917 27.7083H27.7083C28.0951 27.7083 28.466 27.5547 28.7395 27.2812C29.013 27.0077 29.1667 26.6368 29.1667 26.25C29.1667 25.8632 29.013 25.4923 28.7395 25.2188C28.466 24.9453 28.0951 24.7917 27.7083 24.7917Z" fill="#171717"/>
</svg>
