<svg width="32" height="33" viewBox="0 0 32 33" fill="none" xmlns="http://www.w3.org/2000/svg">
<path d="M27.1285 0.257324H4.92853C3.66686 0.257324 2.45686 0.772068 1.56472 1.68832C0.672584 2.60457 0.171387 3.84727 0.171387 5.14304V27.943C0.171387 29.2388 0.672584 30.4815 1.56472 31.3978C2.45686 32.314 3.66686 32.8288 4.92853 32.8288H27.1285C28.3902 32.8288 29.6002 32.314 30.4923 31.3978C31.3845 30.4815 31.8857 29.2388 31.8857 27.943V5.14304C31.8857 3.84727 31.3845 2.60457 30.4923 1.68832C29.6002 0.772068 28.3902 0.257324 27.1285 0.257324ZM12.8571 8.40018C13.4844 8.40018 14.0975 8.59121 14.6191 8.94911C15.1406 9.30701 15.5471 9.81571 15.7871 10.4109C16.0272 11.006 16.09 11.6609 15.9676 12.2928C15.8452 12.9246 15.5432 13.505 15.0996 13.9605C14.6561 14.416 14.091 14.7262 13.4758 14.8519C12.8606 14.9776 12.223 14.9131 11.6434 14.6665C11.0639 14.42 10.5686 14.0025 10.2202 13.4669C9.87167 12.9313 9.68567 12.3015 9.68567 11.6573C9.68567 10.7935 10.0198 9.96501 10.6146 9.35418C11.2093 8.74334 12.016 8.40018 12.8571 8.40018ZM8.87696 29.5716H4.92853C4.59289 29.5657 4.26773 29.4506 3.99987 29.2428C3.732 29.035 3.53526 28.7453 3.43796 28.4153L8.33782 22.3733C8.49577 22.1919 8.68866 22.0461 8.90429 21.9452C9.11992 21.8443 9.35359 21.7904 9.59053 21.787C9.83133 21.792 10.0679 21.8533 10.2822 21.9662C10.4965 22.079 10.6829 22.2405 10.8274 22.4385L12.4131 24.6045L8.87696 29.5716ZM28.7142 27.943C28.7142 28.375 28.5472 28.7892 28.2498 29.0946C27.9524 29.4 27.5491 29.5716 27.1285 29.5716H12.8571L21.531 17.3248C21.6655 17.1341 21.8386 16.9758 22.0384 16.8605C22.2383 16.7452 22.4601 16.6758 22.6885 16.657C22.9182 16.6375 23.1493 16.6697 23.3656 16.7513C23.582 16.8328 23.7784 16.9618 23.9412 17.1293L28.7142 22.0965V27.943Z" fill="#171717"/>
</svg>
