<svg width="35" height="30" viewBox="0 0 35 30" fill="none" xmlns="http://www.w3.org/2000/svg">
<path d="M8.08029 11.4773L4.31301 15.6609L2.8009 14.1495C2.16003 13.5086 1.12199 13.5086 0.48078 14.1495C-0.160431 14.7903 -0.160089 15.8284 0.48078 16.4696L3.21515 19.204C3.52277 19.5164 3.94182 19.6873 4.31369 19.6873C4.32866 19.6873 4.34144 19.6873 4.35641 19.6862C4.57911 19.6805 4.79832 19.6296 5.0007 19.5365C5.20308 19.4434 5.38438 19.3101 5.53356 19.1446L10.4554 13.6759C11.0621 13.0019 11.0066 11.9648 10.3338 11.3578C9.72092 10.7527 8.68869 10.8074 8.08029 11.4773ZM8.08029 0.542538L4.31301 4.7234L2.8009 3.21197C2.16003 2.5711 1.12199 2.5711 0.48078 3.21197C-0.160431 3.85284 -0.160089 4.89088 0.48078 5.53209L3.21515 8.26646C3.52277 8.57887 3.94182 8.74976 4.31369 8.74976C4.32866 8.74976 4.34144 8.74976 4.35641 8.74867C4.57911 8.74303 4.79832 8.6921 5.0007 8.599C5.20308 8.5059 5.38438 8.37257 5.53356 8.20713L10.4554 2.73838C11.0621 2.06442 11.0066 1.02734 10.3338 0.420311C9.72092 -0.184122 8.68869 -0.130802 8.08029 0.542538ZM3.28146 22.907C1.46926 22.907 0.00021362 24.376 0.00021362 26.1882C0.00021362 28.0004 1.46926 29.4695 3.28146 29.4695C5.09367 29.4695 6.56271 28.0004 6.56271 26.1882C6.56271 24.4382 5.09367 22.907 3.28146 22.907ZM17.5002 6.56226H32.8127C34.0206 6.56226 35.0002 5.58267 35.0002 4.37476C35.0002 3.16685 34.0206 2.18726 32.8127 2.18726H17.5002C16.2903 2.18726 15.3127 3.16685 15.3127 4.37476C15.3127 5.58267 16.2903 6.56226 17.5002 6.56226ZM32.8127 13.1248H17.5002C16.2903 13.1248 15.3127 14.1023 15.3127 15.3123C15.3127 16.5222 16.2923 17.4998 17.5002 17.4998H32.8127C34.0206 17.4998 35.0002 16.5202 35.0002 15.3123C35.0002 14.1044 34.0227 13.1248 32.8127 13.1248ZM32.8127 24.0623H13.1252C11.9173 24.0623 10.9377 25.0419 10.9377 26.2498C10.9377 27.4577 11.9173 28.4373 13.1252 28.4373H32.8127C34.0206 28.4373 35.0002 27.4577 35.0002 26.2498C35.0002 25.0419 34.0227 24.0623 32.8127 24.0623Z" fill="#171717"/>
</svg>
